<svg width="100%" height="100%" viewBox="0 0 86 86" xmlns="http://www.w3.org/2000/svg"><g fill="none" fill-rule="evenodd"><path d="M43 86c23.748 0 43-19.252 43-43S66.748 0 43 0 0 19.252 0 43s19.252 43 43 43z" fill="#FAB919"/><path d="M44.977 25.735c-1.207 0-2.167-.301-2.881-.904-.715-.603-1.072-1.419-1.072-2.446 0-1.385.535-2.568 1.608-3.55 1.072-.984 2.344-1.475 3.819-1.475 1.295 0 2.233.391 2.813 1.173.581.781.871 1.574.871 2.378 0 1.43-.502 2.59-1.507 3.484-1.005.893-2.222 1.34-3.651 1.34zm-1.608 29.078c-.135.536-.202.938-.202 1.206 0 .402.201.603.603.603.269 0 .592-.078.972-.234.38-.157.748-.335 1.105-.536.358-.201.693-.38 1.005-.536.313-.157.559-.235.738-.235.357 0 .636.19.837.57.201.38.324.748.368 1.105a51.666 51.666 0 0 1-2.512 1.608c-.96.58-1.943 1.117-2.948 1.608a26.893 26.893 0 0 1-2.948 1.24c-.96.335-1.798.502-2.513.502-.759 0-1.395-.156-1.909-.469-.514-.313-.77-.849-.77-1.608 0-.268.022-.525.066-.77.045-.246.09-.458.134-.637l4.288-20.435c.135-.67.023-1.005-.334-1.005-.135 0-.335.056-.603.168-.269.111-.57.234-.905.368-.335.134-.67.257-1.005.369-.335.111-.614.167-.837.167-.403 0-.704-.2-.905-.603a5.613 5.613 0 0 1-.436-1.139c.85-.447 1.865-.96 3.049-1.54a58.447 58.447 0 0 1 3.484-1.575 70.802 70.802 0 0 1 3.115-1.206c.939-.335 1.608-.503 2.01-.503.358 0 .693.09 1.005.268.313.179.47.491.47.938a6.931 6.931 0 0 1-.134 1.206l-4.288 21.105z" stroke="#FFF" fill="#FFF"/></g></svg>