<?xml version="1.0" encoding="UTF-8"?>
<svg width="53px" height="92px" viewBox="0 0 53 92" version="1.1" xmlns="http://www.w3.org/2000/svg" xmlns:xlink="http://www.w3.org/1999/xlink">
    <!-- Generator: Sketch 50.2 (55047) - http://www.bohemiancoding.com/sketch -->
    <title></title>
    <desc>Created with Sketch.</desc>
    <defs></defs>
    <g id="Page-1" stroke="none" stroke-width="1" fill="none" fill-rule="evenodd">
        <g id="Artboard-7" transform="translate(-62.000000, -229.000000)" fill="#FFFFFF">
            <path d="M96.7343791,274.55417 L62.8125041,239.21042 C61.7291653,238.127082 61.7291653,237.043759 62.8125041,235.96042 L68.9062541,229.86667 C70.1250102,228.783332 71.2083327,228.715624 72.1562541,229.663545 L113.593754,272.92917 C114.000006,273.335422 114.203129,273.877084 114.203129,274.55417 C114.203129,275.231257 114.000006,275.772918 113.593754,276.17917 L72.1562541,319.444795 C71.0729153,320.528134 69.9895928,320.528134 68.9062541,319.444795 L62.8125041,313.14792 C61.7291653,312.064582 61.7291653,310.981259 62.8125041,309.89792 L96.7343791,274.55417 Z" id="" transform="translate(88.101565, 274.628650) scale(-1, -1) translate(-88.101565, -274.628650) "></path>
        </g>
    </g>
</svg>