<?xml version="1.0" encoding="UTF-8"?>
<svg width="53px" height="92px" viewBox="0 0 53 92" version="1.1" xmlns="http://www.w3.org/2000/svg" xmlns:xlink="http://www.w3.org/1999/xlink">
    <!-- Generator: Sketch 50.2 (55047) - http://www.bohemiancoding.com/sketch -->
    <title></title>
    <desc>Created with Sketch.</desc>
    <defs></defs>
    <g id="Page-1" stroke="none" stroke-width="1" fill="none" fill-rule="evenodd">
        <g id="Artboard-7" transform="translate(-260.000000, -375.000000)" fill="#000000">
            <path d="M294.734379,420.55417 L260.812504,385.21042 C259.729165,384.127082 259.729165,383.043759 260.812504,381.96042 L266.906254,375.86667 C268.12501,374.783332 269.208333,374.715624 270.156254,375.663545 L311.593754,418.92917 C312.000006,419.335422 312.203129,419.877084 312.203129,420.55417 C312.203129,421.231257 312.000006,421.772918 311.593754,422.17917 L270.156254,465.444795 C269.072915,466.528134 267.989593,466.528134 266.906254,465.444795 L260.812504,459.14792 C259.729165,458.064582 259.729165,456.981259 260.812504,455.89792 L294.734379,420.55417 Z" id="" transform="translate(286.101565, 420.628650) scale(-1, 1) translate(-286.101565, -420.628650) "></path>
        </g>
    </g>
</svg>