<?xml version="1.0" encoding="UTF-8"?>
<svg id="a"
    xmlns="http://www.w3.org/2000/svg" viewBox="0 0 42 42">
    <rect x="0" y="0" width="42" height="42" rx="20.97" ry="20.97" style="fill:#fff;"/>
    <path d="M22.5,30.01h-3v-12.01l-5.25,5.25-2.13-2.13,8.88-8.88,8.88,8.88-2.13,2.13-5.25-5.25v12.01m-1.5-24.01c8.29,0,15,6.72,15,15s-6.72,15-15,15-15-6.72-15-15S12.72,6,21,6m0,3c-6.63,0-12.01,5.38-12.01,12.01s5.38,12.01,12.01,12.01,12.01-5.38,12.01-12.01-5.38-12.01-12.01-12.01Z" style="fill:#006cb7;"/>
</svg>