<?xml version="1.0" encoding="UTF-8"?>
<svg id="a"
    xmlns="http://www.w3.org/2000/svg" viewBox="0 0 16 20">
    <path d="M10,0H2C.9,0,0,.9,0,2V18c0,1.1,.9,2,2,2H14c1.1,0,2-.9,2-2V6L10,0m4,18H2V2h7V7h5v11Z" style="fill:#ffffff;"/>
    <rect x="3.55" y="1.98" width="2" height="2" style="fill:#ffffff;"/>
    <rect x="5.55" y="3.98" width="2" height="2" style="fill:#ffffff;"/>
    <rect x="3.55" y="5.98" width="2" height="2" style="fill:#ffffff;"/>
    <rect x="5.55" y="7.98" width="2" height="2" style="fill:#ffffff;"/>
    <rect x="3.55" y="10" width="2" height="2" style="fill:#ffffff;"/>
    <rect x="5.55" y="12" width="2" height="2" style="fill:#ffffff;"/>
    <rect x="3.55" y="14" width="2" height="2" style="fill:#ffffff;"/>
    <rect x="5.55" y="16" width="2" height="2" style="fill:#ffffff;"/>
</svg>