<?xml version="1.0" encoding="utf-8"?>
<!-- Generator: Adobe Illustrator 16.0.4, SVG Export Plug-In . SVG Version: 6.00 Build 0)  -->
<!DOCTYPE svg PUBLIC "-//W3C//DTD SVG 1.1//EN" "http://www.w3.org/Graphics/SVG/1.1/DTD/svg11.dtd">
<svg version="1.1" id="Layer_1" xmlns="http://www.w3.org/2000/svg" xmlns:xlink="http://www.w3.org/1999/xlink" x="0px" y="0px"
	 width="14px" height="14px" viewBox="0 0 14 14" enable-background="new 0 0 14 14" xml:space="preserve">
<path fill="#FFFFFF" d="M-7.204,14.361c0-4.931,0-9.859,0-14.789c9.537,0,19.073,0,28.61,0c0,4.93,0,9.858,0,14.789
	C11.869,14.361,2.333,14.361-7.204,14.361z M5.688,5.564c-4.234,0-8.452,0-12.67,0c0,0.94,0,1.871,0,2.812c4.225,0,8.443,0,12.671,0
	c0,1.88,0,3.75,0,5.624c0.937,0,1.865,0,2.804,0c0-1.877,0-3.747,0-5.627c4.228,0,8.445,0,12.67,0c0-0.941,0-1.872,0-2.813
	c-4.225,0-8.442,0-12.674,0c0-1.882,0-3.754,0-5.627c-0.938,0-1.865,0-2.8,0C5.688,1.808,5.688,3.679,5.688,5.564z M-3.792-0.07
	c-0.001,0.004-0.002,0.009-0.002,0.014c2.838,1.418,5.676,2.837,8.519,4.259c0-1.433,0-2.852,0-4.272
	C1.88-0.07-0.956-0.07-3.792-0.07z M17.968-0.055c-0.002-0.005-0.003-0.009-0.005-0.014c-2.837,0-5.672,0-8.513,0
	c0,1.423,0,2.843,0,4.272C12.297,2.78,15.132,1.362,17.968-0.055z M4.729,9.727c-2.853,1.427-5.69,2.845-8.543,4.272
	c2.861,0,5.701,0,8.543,0C4.729,12.575,4.729,11.159,4.729,9.727z M9.448,14.001c2.844,0,5.681,0,8.519,0
	c0.001-0.004,0.002-0.009,0.004-0.013c-2.838-1.419-5.675-2.838-8.522-4.262C9.448,11.161,9.448,12.58,9.448,14.001z M14.996,9.317
	c-0.003,0.006-0.005,0.012-0.008,0.018c2.056,1.027,4.111,2.056,6.182,3.091c0-0.051,0-0.082,0-0.114c0-0.956,0-1.913,0-2.868
	c0-0.126,0-0.126-0.13-0.126c-1.986,0-3.971,0-5.956,0C15.055,9.317,15.025,9.317,14.996,9.317z M9.733,4.603
	C9.771,4.607,9.782,4.61,9.793,4.61c0.646,0,1.291,0.001,1.937-0.001c0.042,0,0.087-0.016,0.125-0.035
	c0.239-0.118,0.478-0.237,0.716-0.357c2.821-1.41,5.642-2.82,8.463-4.23c0.028-0.014,0.056-0.03,0.083-0.045
	c-0.649-0.013-1.292-0.015-1.935-0.011c-0.066,0-0.14,0.019-0.199,0.049c-3.037,1.516-6.073,3.034-9.109,4.552
	C9.834,4.551,9.796,4.571,9.733,4.603z M4.415,9.341C4.412,9.335,4.41,9.329,4.408,9.323C4.387,9.322,4.367,9.32,4.347,9.32
	c-0.625,0-1.25-0.001-1.875,0.002C2.414,9.323,2.351,9.344,2.298,9.37c-3.061,1.529-6.12,3.059-9.179,4.589
	c-0.022,0.011-0.043,0.024-0.081,0.046c0.687,0,1.353,0.001,2.019-0.001c0.035,0,0.073-0.018,0.106-0.034
	c3.06-1.529,6.119-3.059,9.178-4.589C4.366,9.368,4.39,9.354,4.415,9.341z M-6.988,12.423c2.064-1.032,4.118-2.06,6.171-3.086
	c-0.002-0.004-0.005-0.008-0.007-0.012c-2.054,0-4.108,0-6.164,0C-6.988,10.356-6.988,11.381-6.988,12.423z M14.999,4.591
	c0.002,0.006,0.003,0.012,0.004,0.018c0.028,0.001,0.056,0.004,0.083,0.004c1.992,0,3.984,0,5.976,0.002
	c0.092,0,0.111-0.028,0.11-0.115c-0.003-0.962-0.002-1.924-0.002-2.886c0-0.031,0-0.061,0-0.108
	C19.102,2.54,17.051,3.565,14.999,4.591z M-0.833,4.607c0.001-0.006,0.003-0.012,0.005-0.019c-2.05-1.025-4.101-2.05-6.156-3.078
	c0,1.041,0,2.066,0,3.097C-4.931,4.607-2.883,4.607-0.833,4.607z M11.856,9.32c0,0.008-0.001,0.015-0.001,0.022
	c3.099,1.55,6.197,3.099,9.308,4.654c0.003-0.046,0.006-0.074,0.006-0.103c0-0.279-0.003-0.558,0.002-0.836
	c0.001-0.074-0.026-0.108-0.089-0.14c-2.37-1.184-4.739-2.369-7.109-3.552c-0.058-0.028-0.128-0.044-0.192-0.045
	c-0.613-0.003-1.227-0.002-1.84-0.002C11.912,9.32,11.885,9.32,11.856,9.32z M-6.99-0.065c0,0.329,0.003,0.637-0.002,0.944
	c-0.001,0.07,0.023,0.103,0.083,0.132c2.373,1.185,4.746,2.372,7.12,3.557c0.05,0.025,0.111,0.041,0.167,0.041
	C1,4.612,1.622,4.611,2.244,4.61c0.024,0,0.048-0.004,0.072-0.006c0-0.005,0.001-0.01,0.002-0.016
	C-0.78,3.04-3.876,1.492-6.99-0.065z"/>
<path fill-rule="evenodd" clip-rule="evenodd" fill="#DA2B38" d="M5.688,5.564c0-1.886,0-3.756,0-5.632c0.935,0,1.862,0,2.8,0
	c0,1.873,0,3.746,0,5.627c4.231,0,8.449,0,12.674,0c0,0.941,0,1.872,0,2.813c-4.225,0-8.442,0-12.67,0c0,1.88,0,3.75,0,5.627
	c-0.938,0-1.867,0-2.804,0c0-1.874,0-3.744,0-5.624c-4.228,0-8.446,0-12.671,0c0-0.94,0-1.871,0-2.812
	C-2.764,5.564,1.454,5.564,5.688,5.564z"/>
<path fill-rule="evenodd" clip-rule="evenodd" fill="#003690" d="M-3.792-0.07c2.836,0,5.672,0,8.517,0c0,1.421,0,2.839,0,4.272
	c-2.843-1.421-5.681-2.84-8.519-4.259C-3.793-0.061-3.792-0.065-3.792-0.07z"/>
<path fill-rule="evenodd" clip-rule="evenodd" fill="#003690" d="M17.968-0.055C15.132,1.362,12.297,2.78,9.45,4.203
	c0-1.429,0-2.849,0-4.272c2.841,0,5.676,0,8.513,0C17.965-0.064,17.966-0.06,17.968-0.055z"/>
<path fill-rule="evenodd" clip-rule="evenodd" fill="#003690" d="M4.729,9.727c0,1.433,0,2.849,0,4.272c-2.842,0-5.682,0-8.543,0
	C-0.961,12.571,1.875,11.153,4.729,9.727z"/>
<path fill-rule="evenodd" clip-rule="evenodd" fill="#003690" d="M9.448,14.001c0-1.421,0-2.84,0-4.274
	c2.848,1.424,5.685,2.843,8.522,4.262c-0.002,0.004-0.003,0.009-0.004,0.013C15.129,14.001,12.292,14.001,9.448,14.001z"/>
<path fill-rule="evenodd" clip-rule="evenodd" fill="#003690" d="M14.996,9.317c0.029,0,0.059,0,0.088,0c1.985,0,3.97,0,5.956,0
	c0.13,0,0.13,0,0.13,0.126c0,0.955,0,1.912,0,2.868c0,0.032,0,0.063,0,0.114c-2.07-1.035-4.126-2.063-6.182-3.091
	C14.991,9.329,14.993,9.323,14.996,9.317z"/>
<path fill-rule="evenodd" clip-rule="evenodd" fill="#DA2B38" d="M9.733,4.603c0.062-0.032,0.101-0.052,0.14-0.072
	c3.036-1.518,6.072-3.036,9.109-4.552c0.06-0.03,0.133-0.048,0.199-0.049c0.643-0.003,1.285-0.002,1.935,0.011
	c-0.027,0.015-0.055,0.031-0.083,0.045c-2.821,1.411-5.642,2.82-8.463,4.23c-0.238,0.12-0.477,0.239-0.716,0.357
	c-0.038,0.019-0.083,0.035-0.125,0.035C11.084,4.611,10.438,4.61,9.793,4.61C9.782,4.61,9.771,4.607,9.733,4.603z"/>
<path fill-rule="evenodd" clip-rule="evenodd" fill="#DA2B38" d="M4.415,9.341C4.39,9.354,4.366,9.368,4.341,9.381
	c-3.059,1.53-6.118,3.06-9.178,4.589c-0.033,0.017-0.071,0.034-0.106,0.034c-0.666,0.002-1.332,0.001-2.019,0.001
	c0.038-0.021,0.059-0.035,0.081-0.046c3.06-1.53,6.119-3.06,9.179-4.589c0.053-0.026,0.116-0.047,0.174-0.048
	C3.097,9.319,3.722,9.32,4.347,9.32c0.02,0,0.04,0.002,0.061,0.003C4.41,9.329,4.412,9.335,4.415,9.341z"/>
<path fill-rule="evenodd" clip-rule="evenodd" fill="#003690" d="M-6.988,12.423c0-1.042,0-2.066,0-3.098c2.056,0,4.11,0,6.164,0
	c0.002,0.004,0.004,0.008,0.007,0.012C-2.87,10.363-4.923,11.391-6.988,12.423z"/>
<path fill-rule="evenodd" clip-rule="evenodd" fill="#003690" d="M14.999,4.591c2.052-1.025,4.103-2.051,6.171-3.085
	c0,0.047,0,0.077,0,0.108c0,0.962-0.001,1.924,0.002,2.886c0.001,0.086-0.019,0.115-0.11,0.115
	c-1.991-0.003-3.983-0.002-5.976-0.002c-0.027,0-0.055-0.002-0.083-0.004C15.002,4.603,15.001,4.597,14.999,4.591z"/>
<path fill-rule="evenodd" clip-rule="evenodd" fill="#003690" d="M-0.833,4.607c-2.049,0-4.098,0-6.151,0c0-1.031,0-2.056,0-3.097
	c2.056,1.028,4.106,2.053,6.156,3.078C-0.831,4.595-0.832,4.601-0.833,4.607z"/>
<path fill-rule="evenodd" clip-rule="evenodd" fill="#DA2B38" d="M11.856,9.32c0.028,0,0.056,0,0.084,0
	c0.613,0,1.227-0.001,1.84,0.002c0.064,0.001,0.135,0.017,0.192,0.045c2.37,1.183,4.739,2.368,7.109,3.552
	c0.062,0.031,0.09,0.065,0.089,0.14c-0.005,0.278-0.002,0.557-0.002,0.836c0,0.028-0.003,0.057-0.006,0.103
	c-3.11-1.556-6.209-3.104-9.308-4.654C11.855,9.335,11.856,9.328,11.856,9.32z"/>
<path fill-rule="evenodd" clip-rule="evenodd" fill="#DA2B38" d="M-6.99-0.065c3.113,1.557,6.21,3.105,9.308,4.654
	c-0.001,0.005-0.001,0.01-0.002,0.016C2.292,4.606,2.268,4.61,2.244,4.61C1.622,4.611,1,4.612,0.378,4.609
	c-0.056,0-0.117-0.016-0.167-0.041c-2.374-1.185-4.747-2.372-7.12-3.557c-0.06-0.03-0.084-0.062-0.083-0.132
	C-6.987,0.571-6.99,0.264-6.99-0.065z"/>
</svg>
