<?xml version="1.0" encoding="UTF-8"?>
<svg id="a"
    xmlns="http://www.w3.org/2000/svg" viewBox="0 0 22 18">
    <path d="M1,1.27L2.28,0,19,16.72l-1.27,1.28-3.08-3.08c-1.15,.38-2.37,.58-3.65,.58C6,15.5,1.73,12.39,0,8c.69-1.76,1.79-3.31,3.19-4.54L1,1.27m10,3.73c1.66,0,3,1.34,3,3,0,.35-.06,.69-.17,1l-3.83-3.83c.31-.11,.65-.17,1-.17m0-4.5c5,0,9.27,3.11,11,7.5-.82,2.08-2.21,3.88-4,5.19l-1.42-1.43c1.36-.94,2.48-2.22,3.24-3.76-1.65-3.36-5.06-5.5-8.82-5.5-1.09,0-2.16,.18-3.16,.5l-1.54-1.53c1.44-.62,3.03-.97,4.7-.97M2.18,8c1.65,3.36,5.06,5.5,8.82,5.5,.69,0,1.37-.07,2-.21l-2.28-2.29c-1.43-.15-2.57-1.29-2.72-2.72l-3.4-3.41c-.99,.85-1.82,1.91-2.42,3.13Z" style="fill:#212121;"/>
</svg>