<?xml version="1.0" encoding="UTF-8"?>
<svg width="15px" height="19px" viewBox="0 0 15 19" version="1.1" xmlns="http://www.w3.org/2000/svg" xmlns:xlink="http://www.w3.org/1999/xlink" xmlns:sketch="http://www.bohemiancoding.com/sketch/ns">
    <!-- Generator: Sketch 3.4.2 (15855) - http://www.bohemiancoding.com/sketch -->
    <title>Shape</title>
    <desc>Created with Sketch.</desc>
    <defs></defs>
    <g id="Page-1" stroke="none" stroke-width="1" fill="none" fill-rule="evenodd" sketch:type="MSPage">
        <path d="M3.49027047,14.3663551 C2.70050312,14.3663551 2.01930395,14.9271028 1.90146775,15.6792056 C1.88937923,15.7634404 1.88274375,15.8484517 1.88160772,15.9336449 L1.88160772,15.9546729 C1.87891851,16.3320925 2.00705164,16.6974507 2.24173633,16.9815421 C2.52480875,17.3376176 2.94212799,17.5428964 3.38170229,17.5422897 L11.8771629,17.5422897 L11.8771629,16.4824766 L3.00634765,16.4824766 L3.00634765,15.4233645 L11.8771629,15.4233645 L11.8771629,14.3663551 L3.49027047,14.3663551 Z M4.88047286,6.9546729 L10.8808511,6.9546729 L10.8808511,4.83364486 L4.87981086,4.83364486 L4.88047286,6.9546729 Z M3.87952714,8.01168224 L3.87952714,3.77663551 L11.8771629,3.77663551 L11.8771629,8.01168224 L3.87952714,8.01168224 Z M4.379338,10.1292056 L4.379338,9.07079439 L11.38,9.07079439 L11.38,10.1299065 L4.379338,10.1292056 Z M3.38037829,1.65911215 C2.5533207,1.66180603 1.88348997,2.37103068 1.88094572,3.24672897 L1.88094572,13.8672897 C2.34757798,13.5037362 2.91158699,13.3072956 3.49093248,13.3065421 L13.8843503,13.3065421 L13.8843503,1.65911215 L3.38037829,1.65911215 Z M0.88,3.24672897 C0.880730767,1.78502785 1.99986727,0.600386693 3.38037829,0.6 L14.88,0.6 L14.88,14.3663551 L12.8800946,14.3663551 L12.8800946,17.5429907 L14.3801891,17.5429907 L14.3801891,18.6 L3.38037829,18.6 C2.00118217,18.5965318 0.883937583,17.4135801 0.880662001,15.953271 L0.88,3.24672897 Z" id="Shape" fill="#006CB7" sketch:type="MSShapeGroup"></path>
    </g>
</svg>