<?xml version="1.0" encoding="UTF-8"?>
<svg id="a"
    xmlns="http://www.w3.org/2000/svg" viewBox="0 0 42 42">
    <rect width="42" height="42" rx="5.15" ry="5.15" style="fill:#fff;"/>
    <path d="M8,8.5h26c.55,0,1,.34,1,.75v1.5c0,.41-.45,.75-1,.75H8c-.55,0-1-.34-1-.75v-1.5c0-.41,.45-.75,1-.75Z" style="fill:#212121;"/>
    <path d="M8,30.5h26c.55,0,1,.34,1,.75v1.5c0,.41-.45,.75-1,.75H8c-.55,0-1-.34-1-.75v-1.5c0-.41,.45-.75,1-.75Z" style="fill:#212121;"/>
    <path d="M8,19.5h26c.55,0,1,.34,1,.75v1.5c0,.41-.45,.75-1,.75H8c-.55,0-1-.34-1-.75v-1.5c0-.41,.45-.75,1-.75Z" style="fill:#212121;"/>
</svg>