<svg width="86" height="86" xmlns="http://www.w3.org/2000/svg">
  <g fill="none" fill-rule="evenodd">
    <path d="M43 86c23.7482442 0 43-19.2517558 43-43S66.7482442 0 43 0 0 19.2517558 0 43s19.2517558 43 43 43z" fill="#2191C4"/>
    <path d="M44.7410575 24.3417675c-1.489222 0-2.6750661-.3722999-3.557568-1.1169109-.8825019-.744611-1.3237462-1.7511996-1.3237462-3.0197961 0-1.7098475.6618665-3.1714693 1.9856193-4.3849094C43.1691155 14.606711 44.7410484 14 46.5612086 14c1.5995347 0 2.7578011.482611 3.4748338 1.4478474.7170328.9652365 1.0755439 1.9442474 1.0755439 2.937062 0 1.7650038-.6204999 3.1990479-1.8615182 4.3021753-1.2410183 1.1031273-2.7440068 1.6546828-4.5090106 1.6546828zm-1.9856193 35.9066166c-.1654692.6618764-.2482025 1.1582763-.2482025 1.4892145 0 .4964073.2482.7446072.7446073.7446072.3309382 0 .7308159-.0965222 1.199645-.2895694.4688292-.1930473.9238624-.4136695 1.3651133-.6618732.441251-.2482036.8549175-.4688258 1.2410121-.6618731.3860946-.1930473.6894501-.2895695.9100756-.2895695.4412509 0 .785973.2344111 1.0341767.7032402.2482037.4688292.3998814.9238624.4550378 1.3651133-.8825019.6067201-1.9166683 1.2685866-3.1025303 1.9856194-1.1858619.7170328-2.3992838 1.3788993-3.6403021 1.9856193-1.2410183.6067201-2.4544402 1.1169088-3.6403022 1.5305816-1.1858619.4136728-2.2200283.6205061-3.1025302.6205061-.9376583 0-1.7236247-.1930444-2.357923-.579139-.6342982-.3860946-.9514426-1.0479611-.9514426-1.9856194 0-.3309382.0275778-.6480825.0827342-.9514426.0551563-.30336.1103119-.5653488.1654682-.7859743l5.294985-25.2339126c.1654691-.8273455.0275802-1.2410121-.4136707-1.2410121-.1654691 0-.4136691.0689444-.7446073.2068354-.3309382.1378909-.7032381.2895686-1.1169109.4550377-.4136727.1654691-.8273393.3171469-1.2410121.4550378-.4136727.1378909-.7583949.2068353-1.0341767.2068353-.4964073 0-.8687072-.2481999-1.1169109-.7446072-.2482037-.4964073-.4274592-.9652294-.5377719-1.4064804 1.047971-.5515637 2.3027596-1.1858524 3.7644034-1.9028852 1.4616437-.7170328 2.8956878-1.3651104 4.3021752-1.9442523 1.4064874-.5791419 2.6888538-1.0755417 3.8471375-1.4892145 1.1582838-.4136728 1.9856169-.620506 2.4820242-.620506.441251 0 .8549175.110311 1.2410121.3309365.3860946.2206255.579139.6067143.579139 1.158278 0 .1654691-.0137889.3860912-.0413671.6618731-.0275782.2757818-.0689448.5515595-.1241012.8273414l-5.2949849 26.061254z" stroke="#FFF" stroke-width="3" fill="#FFF"/>
  </g>
</svg>
