<svg xmlns="http://www.w3.org/2000/svg" width="24" height="24" viewBox="0 0 24 24" style="fill:#000"><path d="M13.87,2.1h-8a2,2,0,0,0-2,2v16a2,2,0,0,0,2,2h12a2,2,0,0,0,2-2V8.1l-6-6m4,18h-12V4.1h7v5h5Z"/><path d="M8.26,19.17a1.07,1.07,0,0,1-.92-.32c-.23-.24-.68-.72,0-1.6A6.85,6.85,0,0,1,10,15.48a15.23,15.23,0,0,0,.68-2.32,5.65,5.65,0,0,1-1.35-2.94A1.16,1.16,0,0,1,10.46,9h0a1.23,1.23,0,0,1,1.37.81A6,6,0,0,1,11.75,13,16.43,16.43,0,0,0,13,14.47a4.88,4.88,0,0,1,2.72-.08.9.9,0,0,1,.54,1.17,1.26,1.26,0,0,1-1.45.9,4.74,4.74,0,0,1-2.08-1.07,18.36,18.36,0,0,0-2,.7c-.61,1.32-1.24,2.47-2,2.83A1.29,1.29,0,0,1,8.26,19.17ZM9.41,16.8A4.4,4.4,0,0,0,8,18a.15.15,0,0,0,0,.26c.11.08.11.08.2.06A4.73,4.73,0,0,0,9.41,16.8Zm4.47-1.64a2.59,2.59,0,0,0,1,.49c.1,0,.3,0,.35-.31h0l0-.18a2,2,0,0,0-1-.05Zm-2.47-1a2.86,2.86,0,0,1-.28.84c.27-.13.56-.16.84-.29A3.58,3.58,0,0,1,11.41,14.14Zm-.84-4.25c-.09,0-.29,0-.24.39a2.93,2.93,0,0,0,.6,1.61,3.79,3.79,0,0,0,0-1.69C10.76,9.86,10.67,9.88,10.57,9.89Z"/></svg>