<?xml version="1.0" encoding="UTF-8"?>
<svg id="a"
    xmlns="http://www.w3.org/2000/svg" viewBox="0 0 16 20">
    <path d="M10,0H2C.9,0,0,.9,0,2V18c0,1.1,.9,2,2,2H14c1.1,0,2-.9,2-2V6L10,0m4,18H2V2h7V7h5v11Z" style="fill:#006cb7;"/>
    <path d="M4.39,17.07c-.34,.05-.68-.07-.92-.32-.23-.24-.68-.72,0-1.6,.73-.79,1.65-1.4,2.66-1.77,.29-.75,.52-1.53,.68-2.32-.73-.83-1.2-1.85-1.35-2.94-.03-.64,.46-1.19,1.1-1.22h.03c.59-.1,1.17,.24,1.37,.81,.26,1.05,.23,2.15-.08,3.19,.39,.51,.8,1,1.25,1.47,.88-.28,1.82-.31,2.72-.08,.47,.17,.71,.68,.55,1.15v.02c-.18,.63-.81,1.02-1.46,.9-.77-.18-1.49-.55-2.08-1.07-.68,.19-1.35,.43-2,.7-.61,1.32-1.24,2.47-2,2.83-.14,.12-.3,.2-.47,.25Zm1.15-2.37c-.55,.3-1.03,.7-1.41,1.2-.07,.04-.1,.13-.06,.2,.01,.02,.03,.04,.06,.06q.11,.08,.2,.06c.5-.42,.92-.94,1.21-1.52Zm4.47-1.64c.29,.23,.64,.4,1,.49,.1,0,.3,0,.35-.31h0v-.18c-.32-.1-.67-.12-1-.05l-.35,.05Zm-2.47-1c-.05,.29-.14,.58-.28,.84,.27-.13,.56-.16,.84-.29-.21-.17-.4-.36-.56-.57v.02Zm-.84-4.25c-.09,0-.29,0-.24,.39,.03,.58,.24,1.15,.6,1.61,.13-.56,.13-1.13,0-1.69-.17-.36-.26-.34-.36-.33v.02Z" style="fill:#006cb7;"/>
</svg>