<?xml version="1.0" encoding="UTF-8"?>
<svg id="a"
    xmlns="http://www.w3.org/2000/svg" viewBox="0 0 20.2 19">
    <path d="M10.09,0c-1.27,0-2.4,.8-2.82,2H1.09v2h1.95L.09,11c-.47,2,1,3,3.5,3s4.06-1,3.5-3l-2.95-7h3.12c.33,.85,.98,1.5,1.83,1.83v11.17H.09v2H20.09v-2H11.09V5.82c.85-.32,1.5-.97,1.82-1.82h3.13l-2.95,7c-.47,2,1,3,3.5,3s4.06-1,3.5-3l-2.95-7h1.95V2h-6.17c-.43-1.2-1.56-2-2.83-2m0,2c.55,0,1,.45,1,1s-.45,1-1,1-1-.45-1-1,.45-1,1-1M3.59,7.25l1.5,3.75H2.09l1.5-3.75m13,0l1.5,3.75h-3l1.5-3.75Z" style="fill:#006cb7;"/>
</svg>