<?xml version="1.0" encoding="utf-8"?>
<!-- Generator: Adobe Illustrator 16.0.4, SVG Export Plug-In . SVG Version: 6.00 Build 0)  -->
<!DOCTYPE svg PUBLIC "-//W3C//DTD SVG 1.1//EN" "http://www.w3.org/Graphics/SVG/1.1/DTD/svg11.dtd">
<svg version="1.1" id="Layer_1" xmlns="http://www.w3.org/2000/svg" xmlns:xlink="http://www.w3.org/1999/xlink" x="0px" y="0px"
	 width="14px" height="14px" viewBox="0 0 14 14" enable-background="new 0 0 14 14" xml:space="preserve">
<rect x="-1.219" y="-1.219" fill="#007EB6" width="16.987" height="16.688"/>
<path fill-rule="evenodd" clip-rule="evenodd" fill="#FFD300" d="M5.688,5.564c0-1.886,0-3.756,0-5.632c0.935,0,1.862,0,2.8,0
	c0,1.873,0,3.746,0,5.627c4.231,0,8.449,0,12.674,0c0,0.941,0,1.872,0,2.813c-4.225,0-8.442,0-12.67,0c0,1.88,0,3.75,0,5.627
	c-0.938,0-1.867,0-2.804,0c0-1.874,0-3.744,0-5.624c-4.228,0-8.446,0-12.671,0c0-0.94,0-1.871,0-2.812
	C-2.764,5.564,1.454,5.564,5.688,5.564z"/>
</svg>
