<?xml version="1.0" encoding="UTF-8"?>
<svg id="a"
    xmlns="http://www.w3.org/2000/svg" viewBox="0 0 24 14">
    <path d="M13,6c1.66,0,3-1.34,3-3s-1.34-3-3-3-3,1.34-3,3,1.34,3,3,3m0-4c.55,0,1,.45,1,1s-.45,1-1,1-1-.45-1-1,.45-1,1-1m4.11,3.86c1.2-1.72,1.2-4,0-5.72,.29-.09,.59-.14,.89-.14,1.66,0,3,1.34,3,3s-1.34,3-3,3c-.3,0-.6-.05-.89-.14m-4.11,2.14c-6,0-6,4-6,4v2h12v-2s0-4-6-4m-4,4c0-.29,.32-2,4-2s3.94,1.56,4,2m7,0v2h-3v-2c-.05-1.5-.7-2.92-1.8-3.94,4.8,.49,4.8,3.94,4.8,3.94M8,7h-3v3H3v-3H0v-2H3V2h2v3h3v2Z" style="fill:#006cb7;"/>
</svg>