<?xml version="1.0" encoding="UTF-8"?>
<svg enable-background="new 0 0 30 30" style="" version="1.1" viewBox="0 0 30 30" xml:space="preserve" xmlns="http://www.w3.org/2000/svg" xmlns:xlink="http://www.w3.org/1999/xlink"><rect class="" width="100%" height="100%" fill="none" style=""/>
<g class="currentLayer" style=""><title>Layer 1</title><rect class="" x="5" y="5" width="21" height="11" color="rgb(0, 0, 0)" fill="#fff" stroke-dashoffset=""/><path class="selected" d="m15 0c-8.284 0-15 6.716-15 15 0 8.283 6.716 15 15 15 8.285 0 15-6.717 15-15 0-8.284-6.715-15-15-15zm-9.266 14.319l9.266-9.266 9.268 9.266h-18.534z" enable-background="new    " fill="#020202"/><g class="" enable-background="new    " fill="#fff">
	<path d="m7.664 17.991h-1.774v-0.641h4.317v0.641h-1.782v5.19h-0.761v-5.19z"/>
	<path d="m14.007 21.054c0 1.548-1.072 2.223-2.085 2.223-1.133 0-2.007-0.83-2.007-2.154 0-1.401 0.917-2.223 2.077-2.223 1.201-4e-15 2.015 0.873 2.015 2.154zm-3.322 0.043c0 0.917 0.528 1.609 1.271 1.609 0.728 0 1.272-0.684 1.272-1.627 0-0.709-0.354-1.609-1.255-1.609-0.899 1.2e-15 -1.288 0.831-1.288 1.627z"/>
	<path d="m14.97 20.362c0-0.536-0.018-0.969-0.035-1.367h0.684l0.035 0.718h0.017c0.312-0.51 0.805-0.812 1.488-0.812 1.013 0 1.773 0.856 1.773 2.128 0 1.506-0.917 2.249-1.903 2.249-0.554 0-1.038-0.242-1.289-0.657h-0.017v2.275h-0.753v-4.534zm0.753 1.116c0 0.112 0.017 0.216 0.034 0.312 0.139 0.527 0.597 0.891 1.142 0.891 0.805 0 1.272-0.657 1.272-1.618 0-0.839-0.441-1.557-1.246-1.557-0.52 0-1.004 0.372-1.15 0.942-0.026 0.096-0.052 0.208-0.052 0.312v0.718z"/>
	<path d="m19.896 20.362c0-0.536-0.018-0.969-0.035-1.367h0.684l0.035 0.718h0.017c0.312-0.51 0.805-0.812 1.488-0.812 1.013 0 1.773 0.856 1.773 2.128 0 1.506-0.917 2.249-1.903 2.249-0.554 0-1.038-0.242-1.289-0.657h-0.017v2.275h-0.753v-4.534zm0.752 1.116c0 0.112 0.017 0.216 0.034 0.312 0.139 0.527 0.597 0.891 1.142 0.891 0.805 0 1.272-0.657 1.272-1.618 0-0.839-0.441-1.557-1.246-1.557-0.52 0-1.004 0.372-1.15 0.942-0.026 0.096-0.052 0.208-0.052 0.312v0.718z"/>
</g><image x="13" y="63" width="0" height="0" color="rgb(0, 0, 0)" opacity=".8" xlink:href="logo/vector_paint_icon256.png"/><path d="m24.583 7.5" color="rgb(0, 0, 0)" fill="#fff" marker-end="" marker-mid="" marker-start="" stroke-dashoffset=""/><path d="m5.4167 14.167l10.694-8.8889" color="rgb(0, 0, 0)" fill="#fff" marker-end="" marker-mid="" marker-start="" stroke-dashoffset=""/></g></svg>
