<?xml version="1.0" encoding="utf-8"?>
<!-- Generator: Adobe Illustrator 16.0.4, SVG Export Plug-In . SVG Version: 6.00 Build 0)  -->
<!DOCTYPE svg PUBLIC "-//W3C//DTD SVG 1.1//EN" "http://www.w3.org/Graphics/SVG/1.1/DTD/svg11.dtd">
<svg version="1.1" id="Layer_1" xmlns="http://www.w3.org/2000/svg" xmlns:xlink="http://www.w3.org/1999/xlink" x="0px" y="0px"
	 width="12px" height="12px" viewBox="0 0 12 12" enable-background="new 0 0 12 12" xml:space="preserve">
<line fill="none" x1="15.959" y1="9.958" x2="15.959" y2="10"/>
<path fill="#B9BABC" d="M6.021,0.021C2.719,0.021,0.042,2.698,0.042,6c0,3.303,2.677,5.979,5.979,5.979C9.323,11.979,12,9.303,12,6
	C12,2.698,9.323,0.021,6.021,0.021z M8.399,9.793L6.032,7.426L3.664,9.793L2.25,8.379l2.369-2.367L2.271,3.664L3.685,2.25
	l2.348,2.348l2.347-2.347l1.414,1.413L7.446,6.012l2.367,2.367L8.399,9.793z"/>
</svg>
